#!OML:ASF X:\für Bonn\!DataBase\2005_08_12_Daniel\c3d\Daniel.ASF
:FULLY-SPECIFIED
:DEGREES
94
root 3.07876 16.5618 1.74797 -616.102 -91.7636 610.756
lowerback 28.6221 0.762696 1.15291
upperback 6.14811 0.465806 -2.58049
thorax -8.86171 -0.0649113 -3.69364
lowerneck -3.17595 -0.991555 -0.0943558
upperneck -14.3036 -2.11628 -3.0772
head -4.16619 -1.09531 -0.943193
rclavicle -6.16232e-015 -4.37326e-015
rhumerus -0.648223 16.8265 -90.0955
rradius 66.8701
rwrist 19.1693
rhand -23.8956 365.285
rfingers 7.12502
rthumb 2.57822 -24.6792
lclavicle -6.16232e-015 -4.37326e-015
lhumerus -170.294 211.29 -94.7382
lradius 68.5136
lwrist 27.8593
lhand -26.0759 13.8692
lfingers 7.12502
lthumb 0.472455 43.8484
rfemur -21.9009 -6.7975 9.53252
rtibia 57.2904
rfoot -15.0393 -1.68086
rtoes -9.42961
lfemur -203.493 191.59 -201.45
ltibia 51.1059
lfoot 335.164 3.18391
ltoes 1.7224
95
root 3.04099 16.5322 1.75283 -617.192 -91.7163 611.556
lowerback 28.4432 0.793267 1.1806
upperback 6.05957 0.521341 -2.59876
thorax -8.86905 -0.0362471 -3.74784
lowerneck -3.07526 -1.02549 -0.0147302
upperneck -14.0283 -2.1314 -3.02963
head -4.08573 -1.10353 -0.939722
rclavicle -2.5842e-015 -2.50469e-014
rhumerus 2.15737 16.8042 -89.2575
rradius 67.1812
rwrist 19.6572
rhand -24.4731 365.089
rfingers 7.12502
rthumb 2.02047 -24.8815
lclavicle -2.5842e-015 -2.50469e-014
lhumerus -167.99 211.279 -95.7441
lradius 68.9164
lwrist 27.8636
lhand -26.1106 13.75
lfingers 7.12502
lthumb 0.43889 43.7293
rfemur -21.9548 -7.00118 9.54529
rtibia 57.4419
rfoot -15.092 -1.29423
rtoes -8.66391
lfemur -203.275 191.431 -201.507
ltibia 51.5824
lfoot 334.833 2.97778
ltoes 1.65662
96
root 3.00306 16.5039 1.75756 -618.119 -91.6529 612.201
lowerback 28.2458 0.814281 1.23498
upperback 5.96326 0.574586 -2.60657
thorax -8.87553 -0.00872543 -3.80449
lowerneck -2.90973 -1.07272 -0.00278705
upperneck -13.7731 -2.16164 -2.94197
head -4.02396 -1.11632 -0.91043
rclavicle 1.03368e-014 2.38542e-015
rhumerus 4.90979 16.7297 -88.385
rradius 67.6742
rwrist 20.1631
rhand -24.9952 364.858
rfingers 7.12502
rthumb 1.51622 -25.1159
lclavicle 1.03368e-014 2.38542e-015
lhumerus -165.684 211.221 -96.7316
lradius 69.3514
lwrist 27.8535
lhand -26.2012 13.4769
lfingers 7.12502
lthumb 0.351408 43.4564
rfemur -22.0323 -7.196 9.58351
rtibia 57.6056
rfoot -15.1744 -0.960069
rtoes -8.18919
lfemur -203.074 191.259 -201.542
ltibia 52.0543
lfoot 334.529 2.78869
ltoes 1.5691
97
root 2.96317 16.4748 1.76259 -619.24 -91.6357 612.969
lowerback 28.1148 0.826327 1.28724
upperback 5.86578 0.610679 -2.64241
thorax -8.91685 0.00908255 -3.88712
lowerneck -2.71632 -1.12148 -0.0311006
upperneck -13.4957 -2.18913 -2.82198
head -3.95855 -1.12632 -0.863348
rclavicle 7.35503e-015 -5.1684e-015
rhumerus 7.50637 16.5479 -87.5508
rradius 68.3722
rwrist 20.6984
rhand -25.5191 364.695
rfingers 7.12502
rthumb 1.01026 -25.2821
lclavicle 7.35503e-015 -5.1684e-015
lhumerus -163.41 211.16 -97.7376
lradius 69.8571
lwrist 27.9
lhand -26.4217 13.0568
lfingers 7.12502
lthumb 0.138473 43.0365
rfemur -22.0347 -7.38604 9.55685
rtibia 57.7773
rfoot -15.2595 -0.645158
rtoes -7.93477
lfemur -202.758 191.081 -201.641
ltibia 52.5038
lfoot 334.198 2.56518
ltoes 1.57102
98
root 2.92301 16.4453 1.76748 -620.141 -91.5841 613.502
lowerback 28.0057 0.820207 1.38092
upperback 5.75478 0.636852 -2.66938
thorax -8.98423 0.0209347 -3.98129
lowerneck -2.4772 -1.16879 -0.109958
upperneck -13.2097 -2.20929 -2.65243
head -3.89734 -1.13139 -0.791115
rclavicle -8.34896e-015 2.34566e-014
rhumerus 10.0141 16.2863 -86.8082
rradius 69.1353
rwrist 21.116
rhand -26.06 364.701
rfingers 7.12502
rthumb 0.48783 -25.2782
lclavicle -8.34896e-015 2.34566e-014
lhumerus -161.185 211.08 -98.7474
lradius 70.4451
lwrist 27.9609
lhand -26.742 12.5006
lfingers 7.12502
lthumb -0.170894 42.4803
rfemur -22.0043 -7.55303 9.56652
rtibia 57.9464
rfoot -15.3796 -0.390803
rtoes -7.74763
lfemur -202.436 190.908 -201.704
ltibia 52.9663
lfoot 333.874 2.40284
ltoes 1.45378
99
root 2.88252 16.4142 1.77133 -621.214 -91.5192 614.246
lowerback 27.854 0.796523 1.44391
upperback 5.62127 0.63701 -2.66979
thorax -9.05873 0.0221392 -4.01809
lowerneck -2.17727 -1.19828 -0.230952
upperneck -12.9629 -2.21121 -2.49568
head -3.86143 -1.1247 -0.716215
rclavicle 2.32578e-014 -3.89618e-014
rhumerus 12.6021 16.1759 -85.9588
rradius 69.6715
rwrist 21.3191
rhand -26.8373 364.962
rfingers 7.12502
rthumb -0.262991 -25.0173
lclavicle 2.32578e-014 -3.89618e-014
lhumerus -159.021 210.892 -99.7101
lradius 71.0118
lwrist 27.9651
lhand -27.1261 11.8798
lfingers 7.12502
lthumb -0.541896 41.8589
rfemur -22.0054 -7.69614 9.60503
rtibia 58.1406
rfoot -15.5095 -0.224928
rtoes -7.63236
lfemur -202.159 190.741 -201.74
ltibia 53.4451
lfoot 333.537 2.212
ltoes 1.34433
100
root 2.84213 16.382 1.7754 -621.319 -91.4435 613.994
lowerback 27.7583 0.749273 1.56372
upperback 5.46446 0.621795 -2.68551
thorax -9.18753 0.0132966 -4.10213
lowerneck -1.8619 -1.22507 -0.390132
upperneck -12.6629 -2.19986 -2.26821
head -3.80795 -1.11195 -0.611786
rclavicle -1.80894e-014 1.15295e-014
rhumerus 15.2409 16.0961 -85.0991
rradius 69.9086
rwrist 21.3123
rhand -27.8992 365.443
rfingers 7.12502
rthumb -1.28854 -24.533
lclavicle -1.80894e-014 1.15295e-014
lhumerus -156.89 210.757 -100.707
lradius 71.6044
lwrist 27.9436
lhand -27.6123 11.219
lfingers 7.12502
lthumb -1.01142 41.1964
rfemur -21.9276 -7.78634 9.65299
rtibia 58.3604
rfoot -15.6967 -0.217409
rtoes -7.59712
lfemur -201.877 190.611 -201.764
ltibia 53.9628
lfoot 333.162 2.02824
ltoes 1.32221
101
root 2.80082 16.3454 1.77893 -622.103 -91.3642 614.447
lowerback 27.6183 0.697391 1.716
upperback 5.30031 0.607158 -2.73037
thorax -9.30137 0.00372966 -4.23731
lowerneck -1.48332 -1.2604 -0.519528
upperneck -12.4283 -2.20693 -2.05427
head -3.79111 -1.10917 -0.516348
rclavicle 1.11319e-014 -1.15295e-014
rhumerus 17.8176 15.9665 -84.2879
rradius 70.202
rwrist 21.262
rhand -29.0568 366.056
rfingers 7.12502
rthumb -2.4066 -23.9099
lclavicle 1.11319e-014 -1.15295e-014
lhumerus -154.698 210.679 -101.815
lradius 72.2322
lwrist 27.9604
lhand -28.1918 10.5691
lfingers 7.12502
lthumb -1.57118 40.543
rfemur -21.8437 -7.85011 9.69346
rtibia 58.6521
rfoot -15.945 -0.209506
rtoes -7.63033
lfemur -201.647 190.448 -201.775
ltibia 54.5285
lfoot 332.774 1.8235
ltoes 1.20737
